solid AssimpScene
 facet normal 1 0 0
  outer loop
  vertex 12 0 4
  vertex 12 0 -4
  vertex 12 3 4
  endloop
 endfacet

 facet normal 1 0 0
  outer loop
  vertex 12 3 4
  vertex 12 0 -4
  vertex 12 3 -4
  endloop
 endfacet

 facet normal 0 0 -1
  outer loop
  vertex 12 0 -4
  vertex -12 0 -4
  vertex 12 3 -4
  endloop
 endfacet

 facet normal 0 0 -1
  outer loop
  vertex 12 3 -4
  vertex -12 0 -4
  vertex -12 3 -4
  endloop
 endfacet

 facet normal -1 0 0
  outer loop
  vertex -12 0 -4
  vertex -12 0 4
  vertex -12 3 -4
  endloop
 endfacet

 facet normal -1 0 0
  outer loop
  vertex -12 3 -4
  vertex -12 0 4
  vertex -12 3 4
  endloop
 endfacet

 facet normal 0 0 1
  outer loop
  vertex -12 0 4
  vertex 12 0 4
  vertex -12 3 4
  endloop
 endfacet

 facet normal 0 0 1
  outer loop
  vertex -12 3 4
  vertex 12 0 4
  vertex 12 3 4
  endloop
 endfacet

 facet normal 0 1 0
  outer loop
  vertex 12 3 4
  vertex 12 3 -4
  vertex -12 3 4
  endloop
 endfacet

 facet normal 0 1 0
  outer loop
  vertex -12 3 4
  vertex 12 3 -4
  vertex -12 3 -4
  endloop
 endfacet

 facet normal 0 -1 0
  outer loop
  vertex 12 0 -4
  vertex 12 0 4
  vertex -12 0 -4
  endloop
 endfacet

 facet normal 0 -1 0
  outer loop
  vertex -12 0 -4
  vertex 12 0 4
  vertex -12 0 4
  endloop
 endfacet

endsolidAssimpScene
